<svg xmlns="http://www.w3.org/2000/svg" viewBox="0 0 100 100" width="100" height="100" fill="none">
  <defs>
    <filter id="sticker" x="-25%" y="-25%" width="150%" height="150%">
      <feMorphology in="SourceAlpha" operator="dilate" radius="3.3" result="d"></feMorphology>
      <feFlood flood-color="#f4f8fb"></feFlood>
      <feComposite in2="d" operator="in" result="o"></feComposite>
      <feMerge><feMergeNode in="o"></feMergeNode><feMergeNode in="SourceGraphic"></feMergeNode></feMerge>
    </filter>
  </defs>

  
  <g filter="url(#sticker)" fill="#74b2d6">
    
    <rect x="13" y="54" width="19" height="28" rx="8"></rect>
    <rect x="37" y="54" width="19" height="28" rx="8"></rect>
    
    <rect x="11" y="38" width="42" height="28" rx="13"></rect>
    <circle cx="46" cy="45" r="17.5"></circle>
    <g transform="rotate(-6 40 44)"><ellipse cx="40" cy="44" rx="11" ry="13"></ellipse></g>
    
    <path d="M57,52 C62,47 60,37 62.5,33 C64,29.5 70,29.5 70.5,35 C70.8,39 69,41 67.5,41.5" stroke="#74b2d6" stroke-width="7.5" stroke-linecap="round" fill="none"></path>
  </g>
  <path d="M45,34 C50,40 50,52 45,57" stroke="#3f8cb4" stroke-width="1.7" stroke-linecap="round" fill="none" opacity="0.5"></path>
  <circle cx="55" cy="42" r="2.7" fill="#0b1c2e"></circle>

  
  <g stroke-linecap="round" fill="none">
    
    <path d="M80,30 C71.33,34.58 71.33,43.75 80,48.33 C88.67,52.92 88.67,62.08 80,66.67 C71.33,71.25 71.33,80.42 80,85" stroke="#15567f" stroke-width="5.6"></path>
    <path d="M80,30 C71.33,34.58 71.33,43.75 80,48.33 C88.67,52.92 88.67,62.08 80,66.67 C71.33,71.25 71.33,80.42 80,85" stroke="#2f93c2" stroke-width="3.3"></path>
    
    <line x1="75.40" y1="34.58" x2="84.60" y2="34.58" stroke="#eef4f8" stroke-width="2.7"></line>
    <line x1="73.50" y1="39.17" x2="86.50" y2="39.17" stroke="#8fd0ec" stroke-width="2.7"></line>
    <line x1="75.40" y1="43.75" x2="84.60" y2="43.75" stroke="#eef4f8" stroke-width="2.7"></line>
    <line x1="75.40" y1="52.92" x2="84.60" y2="52.92" stroke="#8fd0ec" stroke-width="2.7"></line>
    <line x1="73.50" y1="57.50" x2="86.50" y2="57.50" stroke="#eef4f8" stroke-width="2.7"></line>
    <line x1="75.40" y1="62.08" x2="84.60" y2="62.08" stroke="#8fd0ec" stroke-width="2.7"></line>
    <line x1="75.40" y1="71.25" x2="84.60" y2="71.25" stroke="#eef4f8" stroke-width="2.7"></line>
    <line x1="73.50" y1="75.83" x2="86.50" y2="75.83" stroke="#8fd0ec" stroke-width="2.7"></line>
    <line x1="75.40" y1="80.42" x2="84.60" y2="80.42" stroke="#eef4f8" stroke-width="2.7"></line>
    
    <path d="M80,30 C88.67,34.58 88.67,43.75 80,48.33 C71.33,52.92 71.33,62.08 80,66.67 C88.67,71.25 88.67,80.42 80,85" stroke="#15567f" stroke-width="5.6"></path>
    <path d="M80,30 C88.67,34.58 88.67,43.75 80,48.33 C71.33,52.92 71.33,62.08 80,66.67 C88.67,71.25 88.67,80.42 80,85" stroke="#4fb4dc" stroke-width="3.3"></path>
  </g>
</svg>